<svg xmlns="http://www.w3.org/2000/svg" version="1.1" xmlns:xlink="http://www.w3.org/1999/xlink" xmlns:svgjs="http://svgjs.dev/svgjs" width="1500" height="295" viewBox="0 0 1500 295"><g transform="matrix(1,0,0,1,-0.9083870148576807,-0.055239588321171595)"><svg viewBox="0 0 396 78" data-background-color="#ffffff" preserveAspectRatio="xMidYMid meet" height="295" width="1500" xmlns="http://www.w3.org/2000/svg" xmlns:xlink="http://www.w3.org/1999/xlink"><g id="tight-bounds" transform="matrix(1,0,0,1,0.2398141719224327,0.014605721657801496)"><svg viewBox="0 0 395.52 77.97078855668437" height="77.97078855668437" width="395.52"><g><svg viewBox="0 0 501.75611002127096 98.91363157739931" height="77.97078855668437" width="395.52"><g transform="matrix(1,0,0,1,0,9.247368652405044)"><svg viewBox="0 0 395.52 80.41889427258923" height="80.41889427258923" width="395.52"><g id="textblocktransform"><svg viewBox="0 0 395.52 80.41889427258923" height="80.41889427258923" width="395.52" id="textblock"><g><svg viewBox="0 0 395.52 49.628506065857884" height="49.628506065857884" width="395.52"><g transform="matrix(1,0,0,1,0,0)"><svg width="395.52" viewBox="3.5 -35.6 288.47 36.2" height="49.628506065857884" data-palette-color="#ea3a36"><g class="wordmark-text-0" data-fill-palette-color="primary" id="text-0"><path d="M10.4 0L3.5 0 3.5-19.95Q3.5-26.1 4.5-27.85 5.5-29.6 8.78-32.6 12.05-35.6 13.65-35.6L13.65-35.6Q15.85-35.6 19.1-33.85 22.35-32.1 23.95-29.9L23.95-29.9 18.4-26.05Q15.6-28.85 13.9-28.85L13.9-28.85Q13.25-28.85 12.4-28.03 11.55-27.2 10.98-26.28 10.4-25.35 10.4-21.6L10.4-21.6 10.4-20.45 19.35-20.45 19.35-14.4 10.4-14.4 10.4 0ZM33.55 0L26.65 0 26.65-35 33.55-35 33.55 0ZM36.95-35L56.84-35 56.84-29 50.34-29 50.34 0 43.45 0 43.45-29 36.95-29 36.95-35ZM58.69-15.15L58.69-15.15 58.69-19.85Q58.69-26.1 59.69-27.85 60.69-29.6 63.97-32.6 67.24-35.6 68.84-35.6L68.84-35.6Q71.59-35.6 75.14-32.43 78.69-29.25 79.64-25.45L79.64-25.45 74.09-21.6Q73.29-24.3 71.54-26.58 69.79-28.85 69.09-28.85L69.09-28.85Q67.84-28.85 66.24-26.4L66.24-26.4Q65.59-25.45 65.59-19.85L65.59-19.85 65.59-15.15Q65.59-9.4 66.24-8.6L66.24-8.6Q67.84-6.15 69.09-6.15L69.09-6.15Q69.79-6.15 71.54-8.13 73.29-10.1 74.09-12.5L74.09-12.5 79.64-8.6Q78.69-5.15 75.14-2.27 71.59 0.6 68.84 0.6L68.84 0.6Q67.24 0.6 63.97-2.4 60.69-5.4 59.69-7.15 58.69-8.9 58.69-15.15ZM98.37-2.68Q94.79 0.6 92.99 0.6 91.19 0.6 87.62-2.68 84.04-5.95 83.19-8L83.19-8Q82.64-9.3 82.64-14.55L82.64-14.55 82.64-20.45Q82.64-25.7 83.19-27L83.19-27Q84.04-29.05 87.62-32.33 91.19-35.6 92.99-35.6 94.79-35.6 98.37-32.33 101.94-29.05 102.79-27L102.79-27Q103.34-25.7 103.34-20.45L103.34-20.45 103.34-14.55Q103.34-9.3 102.79-8L102.79-8Q101.94-5.95 98.37-2.68ZM91.32-7.58Q92.29-6.55 92.99-6.55 93.69-6.55 94.67-7.58 95.64-8.6 96.04-9.53 96.44-10.45 96.44-14.55L96.44-14.55 96.44-20.45Q96.44-24.55 96.04-25.48 95.64-26.4 94.67-27.43 93.69-28.45 92.99-28.45 92.29-28.45 91.32-27.43 90.34-26.4 89.94-25.48 89.54-24.55 89.54-20.45L89.54-20.45 89.54-14.55Q89.54-10.45 89.94-9.53 90.34-8.6 91.32-7.58ZM114.94-26.45L114.94-26.45 114.99-24.3 114.99 0 108.09 0 108.09-21.4Q108.09-25.6 107.51-27.3 106.94-29 105.09-31.4L105.09-31.4 111.09-35.6Q112.54-34.65 113.79-32.35L113.79-32.35Q117.74-35.6 119.14-35.6 120.54-35.6 123.56-32.98 126.59-30.35 127.34-29.28 128.09-28.2 128.09-26.45L128.09-26.45 128.09 0 121.14 0 121.14-25.45Q121.14-25.9 120.76-26.58 120.39-27.25 119.61-28.1 118.84-28.95 118.16-28.95 117.49-28.95 116.49-28.18 115.49-27.4 114.94-26.45ZM140.94-26.45L140.94-26.45 140.99-24.3 140.99 0 134.09 0 134.09-21.4Q134.09-25.6 133.51-27.3 132.94-29 131.09-31.4L131.09-31.4 137.09-35.6Q138.54-34.65 139.79-32.35L139.79-32.35Q143.74-35.6 145.14-35.6 146.54-35.6 149.56-32.98 152.59-30.35 153.34-29.28 154.09-28.2 154.09-26.45L154.09-26.45 154.09 0 147.14 0 147.14-25.45Q147.14-25.9 146.76-26.58 146.39-27.25 145.61-28.1 144.84-28.95 144.16-28.95 143.49-28.95 142.49-28.18 141.49-27.4 140.94-26.45ZM165.98-28.2L165.98-21.3 174.93-21.3 174.93-15.25 165.98-15.25 165.98-6.05 177.93-6.05 177.93 0 159.08 0 159.08-30.8 165.98-35.6 177.13-35.6 177.13-29.5 167.83-29.5 165.98-28.2ZM180.43-15.15L180.43-15.15 180.43-19.85Q180.43-26.1 181.43-27.85 182.43-29.6 185.71-32.6 188.98-35.6 190.58-35.6L190.58-35.6Q193.33-35.6 196.88-32.43 200.43-29.25 201.38-25.45L201.38-25.45 195.83-21.6Q195.03-24.3 193.28-26.58 191.53-28.85 190.83-28.85L190.83-28.85Q189.58-28.85 187.98-26.4L187.98-26.4Q187.33-25.45 187.33-19.85L187.33-19.85 187.33-15.15Q187.33-9.4 187.98-8.6L187.98-8.6Q189.58-6.15 190.83-6.15L190.83-6.15Q191.53-6.15 193.28-8.13 195.03-10.1 195.83-12.5L195.83-12.5 201.38-8.6Q200.43-5.15 196.88-2.27 193.33 0.6 190.58 0.6L190.58 0.6Q188.98 0.6 185.71-2.4 182.43-5.4 181.43-7.15 180.43-8.9 180.43-15.15ZM203.73-35L223.63-35 223.63-29 217.13-29 217.13 0 210.23 0 210.23-29 203.73-29 203.73-35ZM231.38-12.2Q231.88-9.6 233.65-7.5 235.43-5.4 236.4-5.4 237.38-5.4 238.48-7.45L238.48-7.45Q238.88-8.25 238.88-10.25 238.88-12.25 238.23-13.1L238.23-13.1Q235.88-15.75 233.13-16.2L233.13-16.2 233.13-19.55Q235.88-20.55 237.63-21.9L237.63-21.9Q238.38-22.45 238.38-24.6L238.38-24.6Q238.38-25.55 237.38-26.43 236.38-27.3 235.73-27.3 235.08-27.3 233.65-25.45 232.23-23.6 231.78-21.35L231.78-21.35 226.38-24.45Q227.08-27.65 230.18-30.73 233.28-33.8 235.83-33.8L235.83-33.8Q237.48-33.8 240.88-31.18 244.28-28.55 244.73-27.2L244.73-27.2Q245.08-26.25 245.08-23.43 245.08-20.6 244.53-19.9L244.53-19.9Q243.58-18.75 242.08-17.95L242.08-17.95Q244.43-16.1 245-15.18 245.58-14.25 245.58-10.68 245.58-7.1 244.93-5.83 244.28-4.55 240.85-1.98 237.43 0.6 235.83 0.6L235.83 0.6Q233.13 0.6 229.85-2.35 226.58-5.3 225.88-8.45L225.88-8.45 231.38-12.2ZM259.82-25.6Q262.12-24.5 264.82-22.23 267.52-19.95 268.15-18.78 268.77-17.6 268.77-12.9 268.77-8.2 268.1-6.7 267.42-5.2 264.07-2.3 260.72 0.6 259.02 0.6 257.32 0.6 253.97-2.3 250.62-5.2 249.82-7L249.82-7Q249.27-8.1 249.27-12.8 249.27-17.5 249.87-20.33 250.47-23.15 252.17-25.5 253.87-27.85 256.07-29.58 258.27-31.3 262.32-33.8L262.32-33.8 267.57-30.1Q262.92-28.4 259.82-25.6L259.82-25.6ZM259.02-5.9Q259.62-5.9 260.5-6.75 261.37-7.6 261.72-8.38 262.07-9.15 262.07-12.6 262.07-16.05 260.95-17.53 259.82-19 256.52-20.15L256.52-20.15 256.27-19.15Q255.97-17.25 255.97-13.1 255.97-8.95 256.37-8.22 256.77-7.5 257.6-6.7 258.42-5.9 259.02-5.9ZM287.27-2.3Q283.92 0.6 282.22 0.6 280.52 0.6 277.17-2.3 273.82-5.2 273.02-7L273.02-7Q272.47-8.05 272.47-13.55L272.47-13.55 272.47-19.65Q272.47-24.9 273.15-26.45 273.82-28 277.17-30.9 280.52-33.8 282.22-33.8 283.92-33.8 287.22-30.9 290.52-28 291.42-26.2L291.42-26.2Q291.97-25.05 291.97-19.65L291.97-19.65 291.97-13.55Q291.97-8.3 291.3-6.75 290.62-5.2 287.27-2.3ZM280.75-6.65Q281.62-5.9 282.22-5.9 282.82-5.9 283.7-6.65 284.57-7.4 284.92-8.03 285.27-8.65 285.27-13.55L285.27-13.55 285.27-19.65Q285.27-23.8 285-24.8 284.72-25.8 283.8-26.55 282.87-27.3 282.25-27.3 281.62-27.3 280.7-26.55 279.77-25.8 279.47-25.03 279.17-24.25 279.17-19.65L279.17-19.65 279.17-13.55Q279.17-8.7 279.52-8.05 279.87-7.4 280.75-6.65Z" fill="#ea3a36" data-fill-palette-color="primary"></path></g></svg></g></svg></g><g transform="matrix(1,0,0,1,0,61.344605263861354)"><svg viewBox="0 0 180.35711999999998 19.074289008727874" height="19.074289008727874" width="180.35711999999998"><g transform="matrix(1,0,0,1,0,0)"><svg width="180.35711999999998" viewBox="5.44 -41.85 500.67 52.96" height="19.074289008727874" data-palette-color="#ee716f"><path d="M15.87-25.51L15.87-25.51Q12.74-25.51 9.5-22.39L9.5-22.39 9.5 0 5.44 0 5.44-29.05 9.01-29.05 9.4-25.2Q10.55-26.98 11.88-27.98 13.21-28.98 14.06-29.2L14.06-29.2Q15.28-29.54 16.38-29.54 17.48-29.54 19.14-29.1L19.14-29.1 18.77-25.22Q17.53-25.51 15.87-25.51ZM47.85-5.03L49.05-1.54Q43.99 0.49 37.89 0.49L37.89 0.49Q34.35 0.49 31.88-0.24L31.88-0.24Q27.95-1.37 26.66-4.88L26.66-4.88Q25.46-8.18 25.46-14.65L25.46-14.65 25.46-15.89Q25.46-23.63 28.68-26.76L28.68-26.76Q31.59-29.54 38.38-29.54L38.38-29.54Q44.99-29.54 47.41-26.27L47.41-26.27Q48.58-24.68 48.96-22.42 49.34-20.17 49.34-18.12L49.34-18.12Q49.34-14.92 49.19-13.16L49.19-13.16Q45.75-13.01 43.02-13.01L43.02-13.01Q43.02-13.01 39.08-13.01L39.08-13.01Q32.93-13.01 29.61-13.55L29.61-13.55Q29.61-7.93 31.03-5.71L31.03-5.71Q32.76-3 37.94-3 43.11-3 47.85-5.03L47.85-5.03ZM29.61-16.41L45.21-16.41 45.21-18.75Q45.21-22.58 43.72-24.22L43.72-24.22Q42.06-26.05 37.99-26.05L37.99-26.05Q33.1-26.05 31.32-23.93L31.32-23.93Q29.61-21.9 29.61-16.41L29.61-16.41ZM60.52 0L60.47-41.5 64.5-41.85 64.5 0 60.52 0ZM97.82-5.03L99.02-1.54Q93.96 0.49 87.86 0.49L87.86 0.49Q84.32 0.49 81.85-0.24L81.85-0.24Q77.92-1.37 76.63-4.88L76.63-4.88Q75.43-8.18 75.43-14.65L75.43-14.65 75.43-15.89Q75.43-23.63 78.65-26.76L78.65-26.76Q81.56-29.54 88.35-29.54L88.35-29.54Q94.96-29.54 97.38-26.27L97.38-26.27Q98.55-24.68 98.93-22.42 99.31-20.17 99.31-18.12L99.31-18.12Q99.31-14.92 99.16-13.16L99.16-13.16Q95.72-13.01 92.99-13.01L92.99-13.01Q92.99-13.01 89.06-13.01L89.06-13.01Q82.9-13.01 79.58-13.55L79.58-13.55Q79.58-7.93 81-5.71L81-5.71Q82.73-3 87.91-3 93.08-3 97.82-5.03L97.82-5.03ZM79.58-16.41L95.18-16.41 95.18-18.75Q95.18-22.58 93.69-24.22L93.69-24.22Q92.03-26.05 87.96-26.05L87.96-26.05Q83.07-26.05 81.29-23.93L81.29-23.93Q79.58-21.9 79.58-16.41L79.58-16.41ZM131.8-19.41L131.8-10.3Q131.8-5.44 132.27-0.2L132.27-0.2 128.65 0.1 128.04-3.3Q124.94-0.81 119.84 0.17L119.84 0.17Q118.18 0.49 116.88 0.49 115.59 0.49 114.6 0.37 113.61 0.24 112.7-0.11 111.78-0.46 111-1.1 110.22-1.73 109.63-2.78L109.63-2.78Q108.39-5 108.39-8.12 108.39-11.23 108.84-12.95 109.29-14.67 110.34-15.82L110.34-15.82Q112.42-18.09 117.32-18.09 122.23-18.09 127.8-16.24L127.8-16.24 127.8-19.41Q127.8-24.71 123.43-25.68L123.43-25.68Q122.01-26 120.18-26L120.18-26Q116.01-26 111.51-24.34L111.51-24.34 110.61-27.86Q111.86-28.69 116.96-29.35L116.96-29.35Q118.57-29.54 120.83-29.54 123.09-29.54 125.26-29 127.43-28.47 128.87-27.25L128.87-27.25Q131.8-24.83 131.8-19.41L131.8-19.41ZM127.7-13.18L127.7-13.18Q121.99-14.62 117.15-14.62L117.15-14.62Q114.17-14.62 113.2-12.92L113.2-12.92Q112.54-11.72 112.54-9.38 112.54-7.03 112.8-5.98 113.05-4.93 113.64-4.25L113.64-4.25Q114.78-2.95 117.42-2.95L117.42-2.95Q121.55-2.95 125.6-5.08L125.6-5.08Q126.85-5.71 127.85-6.49L127.85-6.49Q127.7-9.13 127.7-13.18ZM141.15-2.39L142.91-5.76Q147.94-2.95 153.01-2.95L153.01-2.95Q157.24-2.95 157.97-5.96L157.97-5.96Q158.22-6.98 158.22-8.46 158.22-9.94 157.87-10.75 157.53-11.57 156.73-11.98 155.92-12.38 154.59-12.57 153.26-12.77 151.21-13.12 149.16-13.48 147.45-13.92 145.74-14.36 144.54-15.19L144.54-15.19Q142-16.97 142.1-21.19L142.1-21.19 142.1-21.8Q142.1-26.25 145.03-28.13L145.03-28.13Q147.86-29.98 154.38-29.39L154.38-29.39Q158.83-28.98 161.46-27.86L161.46-27.86 160.31-24.17Q157.38-25.42 153.28-25.98L153.28-25.98Q152.01-26.15 150.9-26.15 149.79-26.15 148.89-25.98 147.99-25.81 147.38-25.34L147.38-25.34Q146.2-24.39 146.15-21.8L146.15-21.8Q146.08-18.75 147.86-17.92L147.86-17.92Q149.57-17.11 151.92-16.81 154.26-16.5 155.75-16.27 157.24-16.04 158.46-15.65 159.68-15.26 160.56-14.4L160.56-14.4Q162.39-12.67 162.34-8.37L162.34-8.37Q162.22-0.88 156.09 0.17L156.09 0.17Q154.24 0.49 152.38 0.49 150.52 0.49 148.97 0.26 147.42 0.02 146.01-0.39L146.01-0.39Q143.32-1.15 141.15-2.39L141.15-2.39ZM193.56-5.03L194.76-1.54Q189.71 0.49 183.6 0.49L183.6 0.49Q180.06 0.49 177.6-0.24L177.6-0.24Q173.67-1.37 172.37-4.88L172.37-4.88Q171.18-8.18 171.18-14.65L171.18-14.65 171.18-15.89Q171.18-23.63 174.4-26.76L174.4-26.76Q177.3-29.54 184.09-29.54L184.09-29.54Q190.71-29.54 193.12-26.27L193.12-26.27Q194.3-24.68 194.67-22.42 195.05-20.17 195.05-18.12L195.05-18.12Q195.05-14.92 194.91-13.16L194.91-13.16Q191.46-13.01 188.73-13.01L188.73-13.01Q188.73-13.01 184.8-13.01L184.8-13.01Q178.65-13.01 175.33-13.55L175.33-13.55Q175.33-7.93 176.74-5.71L176.74-5.71Q178.48-3 183.65-3 188.83-3 193.56-5.03L193.56-5.03ZM175.33-16.41L190.93-16.41 190.93-18.75Q190.93-22.58 189.44-24.22L189.44-24.22Q187.78-26.05 183.7-26.05L183.7-26.05Q178.82-26.05 177.04-23.93L177.04-23.93Q175.33-21.9 175.33-16.41L175.33-16.41ZM216.04 10.21L217.14 7.03Q218.93 7.67 220.06 7.67 221.2 7.67 221.55 7.6 221.9 7.54 222.27 7.35L222.27 7.35Q223.12 6.88 223.54 5.83L223.54 5.83Q224.56 3.34 225.32 0.37L225.32 0.37 214.12-29.05 218.63-29.05 226.2-7.64 227.35-3.88 228.4-7.67 235.09-29.05 239.34-29.05 227.08 6.88Q225.74 11.08 220.88 11.08L220.88 11.08Q217.8 11.08 216.04 10.21L216.04 10.21ZM246.02-14.45L246.02-14.45Q246.02-20 246.58-22.19 247.15-24.39 247.96-25.67 248.78-26.95 250.17-27.81L250.17-27.81Q252.96-29.54 258.4-29.54L258.4-29.54Q266.26-29.54 268.51-25.66L268.51-25.66Q269.85-23.32 270.05-19.04L270.05-19.04Q270.12-17.02 270.12-14.58 270.12-12.13 269.96-10.02 269.8-7.91 269.34-6.23 268.87-4.54 268.04-3.28 267.21-2.03 265.85-1.17L265.85-1.17Q263.16 0.49 258.01 0.49L258.01 0.49Q250.29 0.49 247.88-3.32L247.88-3.32Q246.39-5.69 246.14-9.96L246.14-9.96Q246.02-12.01 246.02-14.45ZM252.66-4.27Q253.54-3.61 254.87-3.28 256.2-2.95 258.51-2.95 260.82-2.95 262.39-3.61 263.97-4.27 264.76-5.73 265.55-7.18 265.76-9.5 265.97-11.82 265.97-14.89 265.97-17.97 265.79-20.02 265.6-22.07 264.87-23.41L264.87-23.41Q263.41-26.05 258.35-26.05L258.35-26.05Q253-26.05 251.39-23.41L251.39-23.41Q250.59-22.07 250.37-20 250.15-17.92 250.15-15.48 250.15-13.04 250.21-11.34 250.27-9.64 250.53-8.29 250.78-6.93 251.28-5.93 251.78-4.93 252.66-4.27ZM302.12-29.05L302.12-12.79Q302.12-4.74 302.59-0.2L302.59-0.2 298.95 0.1 298.36-3.34Q295.51-0.98 291.7 0.07L291.7 0.07Q290.18 0.49 288.1 0.49 286.01 0.49 284.36-0.01 282.71-0.51 281.74-1.61L281.74-1.61Q279.96-3.59 279.96-8.81L279.96-8.81 279.96-29.05 284.06-29.05 284.06-9.47Q284.06-5.96 284.74-4.94 285.42-3.93 286.36-3.58 287.3-3.22 288.6-3.22 289.89-3.22 291.1-3.43 292.31-3.64 293.53-4.03L293.53-4.03Q296.09-4.86 298.17-6.3L298.17-6.3 298.17-6.32Q298.07-8.18 298.07-13.55L298.07-13.55 298.07-29.05 302.12-29.05ZM323.87-25.51L323.87-25.51Q320.75-25.51 317.5-22.39L317.5-22.39 317.5 0 313.45 0 313.45-29.05 317.01-29.05 317.4-25.2Q318.55-26.98 319.88-27.98 321.21-28.98 322.07-29.2L322.07-29.2Q323.29-29.54 324.39-29.54 325.49-29.54 327.15-29.1L327.15-29.1 326.78-25.22Q325.53-25.51 323.87-25.51ZM350.68-1.73L350.68-1.73 350.68 11.11 346.62 11.11 346.62-29.05 349.92-29.05 350.38-26.05Q353.24-28.2 357.83-29.2L357.83-29.2Q359.49-29.54 361.44-29.54 363.4-29.54 364.9-29.03 366.4-28.52 367.37-27.6 368.35-26.68 368.89-25.42 369.43-24.15 369.69-22.66L369.69-22.66Q370.04-20.61 370.04-16.11L370.04-16.11 370.04-15.55Q370.04-9.84 369.65-7.64 369.25-5.44 368.62-4.02 367.99-2.59 366.86-1.59L366.86-1.59Q364.54 0.49 359.68 0.49 354.83 0.49 350.68-1.73ZM350.68-22.92L350.68-5.08Q354.83-3.17 359.39-3.17L359.39-3.17Q362.37-3.17 363.74-4.27L363.74-4.27Q365.59-5.79 365.81-11.33L365.81-11.33Q365.89-13.16 365.89-15.53L365.89-15.53 365.89-16.06Q365.89-21.68 364.91-23.58L364.91-23.58Q363.81-25.76 360.37-25.76L360.37-25.76 360-25.76Q356.41-25.76 352.56-23.97L352.56-23.97Q351.43-23.46 350.68-22.92L350.68-22.92ZM379.21-14.45L379.21-14.45Q379.21-20 379.77-22.19 380.34-24.39 381.15-25.67 381.97-26.95 383.36-27.81L383.36-27.81Q386.15-29.54 391.59-29.54L391.59-29.54Q399.45-29.54 401.7-25.66L401.7-25.66Q403.04-23.32 403.24-19.04L403.24-19.04Q403.31-17.02 403.31-14.58 403.31-12.13 403.15-10.02 402.99-7.91 402.53-6.23 402.06-4.54 401.23-3.28 400.4-2.03 399.04-1.17L399.04-1.17Q396.35 0.49 391.2 0.49L391.2 0.49Q383.49 0.49 381.07-3.32L381.07-3.32Q379.58-5.69 379.34-9.96L379.34-9.96Q379.21-12.01 379.21-14.45ZM385.85-4.27Q386.73-3.61 388.06-3.28 389.39-2.95 391.7-2.95 394.01-2.95 395.58-3.61 397.16-4.27 397.95-5.73 398.74-7.18 398.95-9.5 399.16-11.82 399.16-14.89 399.16-17.97 398.98-20.02 398.79-22.07 398.06-23.41L398.06-23.41Q396.6-26.05 391.54-26.05L391.54-26.05Q386.2-26.05 384.58-23.41L384.58-23.41Q383.78-22.07 383.56-20 383.34-17.92 383.34-15.48 383.34-13.04 383.4-11.34 383.46-9.64 383.72-8.29 383.97-6.93 384.47-5.93 384.97-4.93 385.85-4.27ZM419.2 0L410.17-29.05 414.51-29.05 420.67-7.71 421.76-3.05 422.57-6.96 428.92-29.05 432.92-29.05 439.17-7.71 440.25-3 441.03-6.98 447.08-29.05 451.48-29.05 442.88 0 437.54 0 431.97-18.63 430.85-24.34 429.85-18.63 424.3 0 419.2 0ZM480.67-5.03L481.87-1.54Q476.82 0.49 470.71 0.49L470.71 0.49Q467.17 0.49 464.71-0.24L464.71-0.24Q460.78-1.37 459.48-4.88L459.48-4.88Q458.29-8.18 458.29-14.65L458.29-14.65 458.29-15.89Q458.29-23.63 461.51-26.76L461.51-26.76Q464.41-29.54 471.2-29.54L471.2-29.54Q477.82-29.54 480.23-26.27L480.23-26.27Q481.41-24.68 481.78-22.42 482.16-20.17 482.16-18.12L482.16-18.12Q482.16-14.92 482.02-13.16L482.02-13.16Q478.57-13.01 475.84-13.01L475.84-13.01Q475.84-13.01 471.91-13.01L471.91-13.01Q465.76-13.01 462.44-13.55L462.44-13.55Q462.44-7.93 463.85-5.71L463.85-5.71Q465.59-3 470.76-3 475.94-3 480.67-5.03L480.67-5.03ZM462.44-16.41L478.04-16.41 478.04-18.75Q478.04-22.58 476.55-24.22L476.55-24.22Q474.89-26.05 470.81-26.05L470.81-26.05Q465.93-26.05 464.14-23.93L464.14-23.93Q462.44-21.9 462.44-16.41L462.44-16.41ZM502.84-25.51L502.84-25.51Q499.71-25.51 496.47-22.39L496.47-22.39 496.47 0 492.41 0 492.41-29.05 495.98-29.05 496.37-25.2Q497.52-26.98 498.85-27.98 500.18-28.98 501.03-29.2L501.03-29.2Q502.25-29.54 503.35-29.54 504.45-29.54 506.11-29.1L506.11-29.1 505.74-25.22Q504.5-25.51 502.84-25.51Z" opacity="1" transform="matrix(1,0,0,1,0,0)" fill="#ee716f" class="slogan-text-1" data-fill-palette-color="secondary" id="text-1"></path></svg></g></svg></g></svg></g></svg></g><g transform="matrix(1,0,0,1,407.23609919800344,0)"><svg viewBox="0 0 94.52001082326748 98.91363157739931" height="98.91363157739931" width="94.52001082326748"><g><svg xmlns="http://www.w3.org/2000/svg" xmlns:xlink="http://www.w3.org/1999/xlink" version="1.1" x="0" y="0" viewBox="3.066050371105657 2 45.86789957223131 48" enable-background="new 0 0 52 52" xml:space="preserve" height="98.91363157739931" width="94.52001082326748" class="icon-icon-0" data-fill-palette-color="accent" id="icon-0"><g fill="#f27d2c" data-fill-palette-color="accent"><path d="M48.934 43.25c0.01 0.93-0.4 1.81-1.13 2.41-1.3 1.06-4.27 2.9-9.08 2.62-0.21 0-0.34 0.01-0.45 0.06C36.924 48.84 33.334 50 29.104 50c-2 0-3.89-0.27-5.62-0.79-0.26-0.08-0.51-0.19-0.76-0.35-0.52-0.32-2.43-1.38-5.25-1.38-0.65 0-1.32 0.06-1.98 0.17-0.06 0.01-0.52 0.06-1.23 0.06-2.69 0-9.14-0.75-10.88-7.71-0.03-0.1-1.08-3.68 0.81-6.9C5.464 30.94 7.714 29.5 10.874 28.81c0 0 1.02-0.31 2.6-0.31 2.18 0 5.42 0.59 8.46 3.39 0.28 0.26 0.69 0.36 1.04 0.25 0.75-0.23 1.95-0.51 3.36-0.51 2.18 0 4.23 0.63 6.09 1.87 0.02 0.01 0.09 0 0.1-0.06l0.73-10.26c0.02-0.15 0-0.29-0.05-0.43l-2.98-6.19c-0.02-0.05-0.04-0.1-0.06-0.16-0.06-0.2-0.28-0.6-0.47-0.6-0.04 0-0.18 0.01-0.41 0.15-0.28 0.17-0.72 0.41-1.25 0.48-0.22 0.03-0.48 0.06-0.79 0.06-0.92 0-1.92-0.2-2.97-0.59-0.08-0.03-0.15-0.05-0.2-0.06-0.09-0.01-0.21-0.04-0.35-0.07-0.48-0.1-1.2-0.2-1.53 0-0.77 0.45-1.71 0.68-2.77 0.68-0.77 0-1.57-0.13-2.27-0.34-0.7-0.22-1.3-0.52-1.67-0.88-0.51-0.48-0.7-1.14-0.56-1.87 0.19-1.01 0.99-2.01 1.89-2.38 0.3-0.12 0.66-0.27 1.04-0.42C16.684 9.5 15.514 7.97 16.424 6.62c0.07-0.11 0.17-0.21 0.28-0.28C16.714 6.33 18.194 5.35 19.134 3.75 19.544 3.09 20.684 2 22.444 2c0.68 0 1.39 0.16 2.12 0.48 1.06 0.26 7.2 1.84 9.42 3.97 0.8 0.86 3.21 3.6 3.38 5.36 0.74 2.38 2.24 6.39 3.23 7.41 0.15 0.15 0.27 0.29 0.38 0.46 1.18 1.81 5.06 7.92 5.6 10.94C46.834 31.43 48.854 37.7 48.934 43.25z" fill="#f27d2c" data-fill-palette-color="accent"></path></g></svg></g></svg></g></svg></g><defs></defs></svg><rect width="395.52" height="77.97078855668437" fill="none" stroke="none" visibility="hidden"></rect></g></svg></g></svg>